<svg id="visual" viewBox="0 0 960 540" width="960" height="540" xmlns="http://www.w3.org/2000/svg" xmlns:xlink="http://www.w3.org/1999/xlink" version="1.1"><rect x="0" y="0" width="960" height="540" fill="#1c0803"></rect><path d="M734 540L730.7 531.8C727.3 523.7 720.7 507.3 716.5 491C712.3 474.7 710.7 458.3 705.3 442C700 425.7 691 409.3 691.5 393C692 376.7 702 360.3 715.3 344C728.7 327.7 745.3 311.3 744.2 294.8C743 278.3 724 261.7 714.2 245.2C704.3 228.7 703.7 212.3 709.8 196C716 179.7 729 163.3 725 147C721 130.7 700 114.3 700.2 98C700.3 81.7 721.7 65.3 722.5 49C723.3 32.7 703.7 16.3 693.8 8.2L684 0L960 0L960 8.2C960 16.3 960 32.7 960 49C960 65.3 960 81.7 960 98C960 114.3 960 130.7 960 147C960 163.3 960 179.7 960 196C960 212.3 960 228.7 960 245.2C960 261.7 960 278.3 960 294.8C960 311.3 960 327.7 960 344C960 360.3 960 376.7 960 393C960 409.3 960 425.7 960 442C960 458.3 960 474.7 960 491C960 507.3 960 523.7 960 531.8L960 540Z" fill="#300b01"></path><path d="M717 540L726.3 531.8C735.7 523.7 754.3 507.3 761.2 491C768 474.7 763 458.3 756 442C749 425.7 740 409.3 751.2 393C762.3 376.7 793.7 360.3 801.3 344C809 327.7 793 311.3 777 294.8C761 278.3 745 261.7 750.3 245.2C755.7 228.7 782.3 212.3 788.8 196C795.3 179.7 781.7 163.3 765.7 147C749.7 130.7 731.3 114.3 725.3 98C719.3 81.7 725.7 65.3 726.3 49C727 32.7 722 16.3 719.5 8.2L717 0L960 0L960 8.2C960 16.3 960 32.7 960 49C960 65.3 960 81.7 960 98C960 114.3 960 130.7 960 147C960 163.3 960 179.7 960 196C960 212.3 960 228.7 960 245.2C960 261.7 960 278.3 960 294.8C960 311.3 960 327.7 960 344C960 360.3 960 376.7 960 393C960 409.3 960 425.7 960 442C960 458.3 960 474.7 960 491C960 507.3 960 523.7 960 531.8L960 540Z" fill="#511f19"></path><path d="M782 540L784.5 531.8C787 523.7 792 507.3 805.2 491C818.3 474.7 839.7 458.3 837.3 442C835 425.7 809 409.3 801.5 393C794 376.7 805 360.3 804.7 344C804.3 327.7 792.7 311.3 786.8 294.8C781 278.3 781 261.7 789.8 245.2C798.7 228.7 816.3 212.3 830.2 196C844 179.7 854 163.3 860.5 147C867 130.7 870 114.3 855.8 98C841.7 81.7 810.3 65.3 801.5 49C792.7 32.7 806.3 16.3 813.2 8.2L820 0L960 0L960 8.2C960 16.3 960 32.7 960 49C960 65.3 960 81.7 960 98C960 114.3 960 130.7 960 147C960 163.3 960 179.7 960 196C960 212.3 960 228.7 960 245.2C960 261.7 960 278.3 960 294.8C960 311.3 960 327.7 960 344C960 360.3 960 376.7 960 393C960 409.3 960 425.7 960 442C960 458.3 960 474.7 960 491C960 507.3 960 523.7 960 531.8L960 540Z" fill="#75352a"></path><path d="M858 540L857.8 531.8C857.7 523.7 857.3 507.3 864.7 491C872 474.7 887 458.3 892.2 442C897.3 425.7 892.7 409.3 891.3 393C890 376.7 892 360.3 895.5 344C899 327.7 904 311.3 902.5 294.8C901 278.3 893 261.7 894.8 245.2C896.7 228.7 908.3 212.3 911.8 196C915.3 179.7 910.7 163.3 902.3 147C894 130.7 882 114.3 880.8 98C879.7 81.7 889.3 65.3 893.3 49C897.3 32.7 895.7 16.3 894.8 8.2L894 0L960 0L960 8.2C960 16.3 960 32.7 960 49C960 65.3 960 81.7 960 98C960 114.3 960 130.7 960 147C960 163.3 960 179.7 960 196C960 212.3 960 228.7 960 245.2C960 261.7 960 278.3 960 294.8C960 311.3 960 327.7 960 344C960 360.3 960 376.7 960 393C960 409.3 960 425.7 960 442C960 458.3 960 474.7 960 491C960 507.3 960 523.7 960 531.8L960 540Z" fill="#9b4c3b"></path></svg>